<?xml version="1.0" encoding="UTF-8"?>
<svg version="1.1" xmlns="http://www.w3.org/2000/svg" width="88" height="64">
<path d="M0 0 C29.04 0 58.08 0 88 0 C88 21.12 88 42.24 88 64 C58.96 64 29.92 64 0 64 C0 42.88 0 21.76 0 0 Z " fill="#FCFCF6" transform="translate(0,0)"/>
<path d="M0 0 C6.0076736 -0.43108498 9.46980356 0.60713542 14.05859375 4.5390625 C20.25683004 11.07998974 20.20233356 19.99042549 20.0390625 28.51171875 C19.54222445 33.7421677 17.71783616 37.07279245 14.68359375 41.25390625 C14.08546875 42.26453125 13.48734375 43.27515625 12.87109375 44.31640625 C12.47921875 44.95578125 12.08734375 45.59515625 11.68359375 46.25390625 C12.98296875 46.06828125 14.28234375 45.88265625 15.62109375 45.69140625 C17.8359375 45.375 17.8359375 45.375 19.68359375 45.25390625 C20.68359375 46.25390625 20.68359375 46.25390625 20.87109375 49.12890625 C20.68359375 52.25390625 20.68359375 52.25390625 18.68359375 55.25390625 C15.61341458 56.03200667 12.76918755 55.9242249 9.68359375 55.25390625 C7.22745098 53.46249937 6.31070464 51.9307661 4.68359375 49.25390625 C4.68359375 48.26390625 4.68359375 47.27390625 4.68359375 46.25390625 C3.50796875 46.29515625 2.33234375 46.33640625 1.12109375 46.37890625 C-4.1516815 46.36024156 -8.58118764 45.67767536 -12.75390625 42.25390625 C-14.31640625 40.25390625 -14.31640625 40.25390625 -14.31640625 38.25390625 C-14.97640625 38.25390625 -15.63640625 38.25390625 -16.31640625 38.25390625 C-19.28249858 29.06020175 -20.08775628 18.26266411 -16.42578125 9.125 C-13.8271712 4.74213304 -10.3540097 1.88782732 -5.50390625 0.37890625 C-3.66634088 0.30684486 -1.82802886 0.20037416 0 0 Z " fill="#FF802A" transform="translate(61.31640625,5.74609375)"/>
<path d="M0 0 C1.23492188 -0.02578125 2.46984375 -0.0515625 3.7421875 -0.078125 C7.51636021 0.28796104 8.62398095 0.45047654 11.125 3.25 C11.75740393 6.253352 11.72999974 9.2323503 11.734375 12.29296875 C11.75091125 13.1765657 11.76744751 14.06016266 11.78448486 14.97053528 C11.83307285 17.79292678 11.85435941 20.61477912 11.875 23.4375 C11.9031507 25.35093874 11.93307686 27.26435225 11.96484375 29.17773438 C12.03883455 33.86844521 12.08834302 38.55885483 12.125 43.25 C8.165 43.25 4.205 43.25 0.125 43.25 C0.455 38.96 0.785 34.67 1.125 30.25 C-2.835 30.25 -6.795 30.25 -10.875 30.25 C-9.9159375 32.910625 -9.9159375 32.910625 -8.9375 35.625 C-8.57785156 36.62273438 -8.21820313 37.62046875 -7.84765625 38.6484375 C-6.95150708 41.18504165 -6.95150708 41.18504165 -5.875 43.25 C-7.83266281 43.33082094 -9.79126728 43.38910778 -11.75 43.4375 C-13.38582031 43.48970703 -13.38582031 43.48970703 -15.0546875 43.54296875 C-15.98539063 43.44628906 -16.91609375 43.34960938 -17.875 43.25 C-22.59276902 36.17334647 -21.73108446 25.47029232 -20.875 17.25 C-18.94581016 10.18207131 -14.86990863 5.34224242 -8.875 1.25 C-5.93577067 -0.21961466 -3.27091028 0.04080138 0 0 Z " fill="#050505" transform="translate(26.875,7.75)"/>
<path d="M0 0 C2.5 0.3125 2.5 0.3125 5 1 C6.47793555 3.95587111 6.17053651 6.64997645 6.1875 9.9375 C6.20167969 11.18402344 6.21585937 12.43054688 6.23046875 13.71484375 C6 17 6 17 4 20 C2.0625 19.6875 2.0625 19.6875 0 19 C-1.19825457 15.40523628 -1.14608744 12.11450601 -1.125 8.375 C-1.12886719 7.68148438 -1.13273437 6.98796875 -1.13671875 6.2734375 C-1.12666646 1.12666646 -1.12666646 1.12666646 0 0 Z " fill="#FFFAD7" transform="translate(60,19)"/>
<path d="M0 0 C0 4.29 0 8.58 0 13 C-3.96 13 -7.92 13 -12 13 C-10.56141857 5.28397232 -8.85770668 0 0 0 Z " fill="#EBEBEB" transform="translate(28,17)"/>
<path d="M0 0 C-1.44077046 3.36179774 -3.24750021 5.59156268 -6 8 C-6.66 8 -7.32 8 -8 8 C-6.48291727 4.46014029 -4.24676932 0 0 0 Z " fill="#FFB04A" transform="translate(53,8)"/>
</svg>
